<mxfile host="app.diagrams.net" agent="Mozilla/5.0 (Windows NT 10.0; Win64; x64) AppleWebKit/537.36 (KHTML, like Gecko) Chrome/131.0.0.0 Safari/537.36" version="25.0.3">
  <diagram name="Page-1" id="CtssUGDRM3buI-RQOEoJ">
    <mxGraphModel dx="1195" dy="622" grid="1" gridSize="10" guides="1" tooltips="1" connect="1" arrows="1" fold="1" page="1" pageScale="1" pageWidth="850" pageHeight="1100" math="0" shadow="0">
      <root>
        <mxCell id="0" />
        <mxCell id="1" parent="0" />
        <mxCell id="yAQwJThEF4O6Ccd57yTx-16" style="edgeStyle=orthogonalEdgeStyle;rounded=0;orthogonalLoop=1;jettySize=auto;html=1;entryX=0.5;entryY=0;entryDx=0;entryDy=0;" edge="1" parent="1" source="yAQwJThEF4O6Ccd57yTx-1" target="yAQwJThEF4O6Ccd57yTx-3">
          <mxGeometry relative="1" as="geometry" />
        </mxCell>
        <mxCell id="yAQwJThEF4O6Ccd57yTx-1" value="&lt;font style=&quot;font-size: 24px;&quot;&gt;start&lt;/font&gt;" style="strokeWidth=2;html=1;shape=mxgraph.flowchart.start_1;whiteSpace=wrap;" vertex="1" parent="1">
          <mxGeometry x="375" y="40" width="100" height="60" as="geometry" />
        </mxCell>
        <mxCell id="yAQwJThEF4O6Ccd57yTx-2" value="&lt;font style=&quot;font-size: 24px;&quot;&gt;end&lt;/font&gt;" style="strokeWidth=2;html=1;shape=mxgraph.flowchart.start_1;whiteSpace=wrap;" vertex="1" parent="1">
          <mxGeometry x="375" y="840" width="100" height="60" as="geometry" />
        </mxCell>
        <mxCell id="yAQwJThEF4O6Ccd57yTx-17" style="edgeStyle=orthogonalEdgeStyle;rounded=0;orthogonalLoop=1;jettySize=auto;html=1;entryX=0.5;entryY=0;entryDx=0;entryDy=0;" edge="1" parent="1" source="yAQwJThEF4O6Ccd57yTx-3" target="yAQwJThEF4O6Ccd57yTx-4">
          <mxGeometry relative="1" as="geometry" />
        </mxCell>
        <mxCell id="yAQwJThEF4O6Ccd57yTx-3" value="input num1, num2, num3" style="shape=parallelogram;perimeter=parallelogramPerimeter;whiteSpace=wrap;html=1;fixedSize=1;" vertex="1" parent="1">
          <mxGeometry x="288" y="140" width="275" height="50" as="geometry" />
        </mxCell>
        <mxCell id="yAQwJThEF4O6Ccd57yTx-9" style="edgeStyle=orthogonalEdgeStyle;rounded=0;orthogonalLoop=1;jettySize=auto;html=1;entryX=0.5;entryY=0;entryDx=0;entryDy=0;" edge="1" parent="1" source="yAQwJThEF4O6Ccd57yTx-4" target="yAQwJThEF4O6Ccd57yTx-6">
          <mxGeometry relative="1" as="geometry" />
        </mxCell>
        <mxCell id="yAQwJThEF4O6Ccd57yTx-11" value="" style="edgeStyle=orthogonalEdgeStyle;rounded=0;orthogonalLoop=1;jettySize=auto;html=1;" edge="1" parent="1" source="yAQwJThEF4O6Ccd57yTx-4" target="yAQwJThEF4O6Ccd57yTx-5">
          <mxGeometry relative="1" as="geometry" />
        </mxCell>
        <mxCell id="yAQwJThEF4O6Ccd57yTx-4" value="num1 &amp;gt;= num2 &amp;amp;&amp;amp; num1 &amp;gt;= num3" style="rhombus;whiteSpace=wrap;html=1;" vertex="1" parent="1">
          <mxGeometry x="322" y="250" width="206" height="110" as="geometry" />
        </mxCell>
        <mxCell id="yAQwJThEF4O6Ccd57yTx-12" style="edgeStyle=orthogonalEdgeStyle;rounded=0;orthogonalLoop=1;jettySize=auto;html=1;" edge="1" parent="1" source="yAQwJThEF4O6Ccd57yTx-5" target="yAQwJThEF4O6Ccd57yTx-7">
          <mxGeometry relative="1" as="geometry" />
        </mxCell>
        <mxCell id="yAQwJThEF4O6Ccd57yTx-13" style="edgeStyle=orthogonalEdgeStyle;rounded=0;orthogonalLoop=1;jettySize=auto;html=1;entryX=0.5;entryY=0;entryDx=0;entryDy=0;" edge="1" parent="1" source="yAQwJThEF4O6Ccd57yTx-5" target="yAQwJThEF4O6Ccd57yTx-8">
          <mxGeometry relative="1" as="geometry" />
        </mxCell>
        <mxCell id="yAQwJThEF4O6Ccd57yTx-5" value="num2 &amp;gt;= num1 &amp;amp;&amp;amp; num2 &amp;gt;= num3" style="rhombus;whiteSpace=wrap;html=1;" vertex="1" parent="1">
          <mxGeometry x="307" y="410" width="236" height="120" as="geometry" />
        </mxCell>
        <mxCell id="yAQwJThEF4O6Ccd57yTx-6" value="output&lt;div&gt;&quot;The 1st Number is the greatest among three&quot;&lt;/div&gt;" style="shape=parallelogram;perimeter=parallelogramPerimeter;whiteSpace=wrap;html=1;fixedSize=1;" vertex="1" parent="1">
          <mxGeometry x="12.5" y="340" width="275" height="50" as="geometry" />
        </mxCell>
        <mxCell id="yAQwJThEF4O6Ccd57yTx-7" value="output&lt;div&gt;&quot;The 2st Number is the greatest among three&quot;&lt;/div&gt;" style="shape=parallelogram;perimeter=parallelogramPerimeter;whiteSpace=wrap;html=1;fixedSize=1;" vertex="1" parent="1">
          <mxGeometry x="610" y="445" width="275" height="50" as="geometry" />
        </mxCell>
        <mxCell id="yAQwJThEF4O6Ccd57yTx-8" value="output&lt;div&gt;&quot;The 3st Number is the greatest among three&quot;&lt;/div&gt;" style="shape=parallelogram;perimeter=parallelogramPerimeter;whiteSpace=wrap;html=1;fixedSize=1;" vertex="1" parent="1">
          <mxGeometry x="287.5" y="600" width="275" height="50" as="geometry" />
        </mxCell>
        <mxCell id="yAQwJThEF4O6Ccd57yTx-10" style="edgeStyle=orthogonalEdgeStyle;rounded=0;orthogonalLoop=1;jettySize=auto;html=1;entryX=0.5;entryY=0;entryDx=0;entryDy=0;entryPerimeter=0;" edge="1" parent="1" source="yAQwJThEF4O6Ccd57yTx-6" target="yAQwJThEF4O6Ccd57yTx-2">
          <mxGeometry relative="1" as="geometry">
            <Array as="points">
              <mxPoint x="150" y="720" />
              <mxPoint x="425" y="720" />
            </Array>
          </mxGeometry>
        </mxCell>
        <mxCell id="yAQwJThEF4O6Ccd57yTx-14" style="edgeStyle=orthogonalEdgeStyle;rounded=0;orthogonalLoop=1;jettySize=auto;html=1;entryX=0.5;entryY=0;entryDx=0;entryDy=0;entryPerimeter=0;" edge="1" parent="1" source="yAQwJThEF4O6Ccd57yTx-8" target="yAQwJThEF4O6Ccd57yTx-2">
          <mxGeometry relative="1" as="geometry" />
        </mxCell>
        <mxCell id="yAQwJThEF4O6Ccd57yTx-15" style="edgeStyle=orthogonalEdgeStyle;rounded=0;orthogonalLoop=1;jettySize=auto;html=1;entryX=0.5;entryY=0;entryDx=0;entryDy=0;entryPerimeter=0;" edge="1" parent="1" source="yAQwJThEF4O6Ccd57yTx-7" target="yAQwJThEF4O6Ccd57yTx-2">
          <mxGeometry relative="1" as="geometry">
            <Array as="points">
              <mxPoint x="748" y="720" />
              <mxPoint x="425" y="720" />
            </Array>
          </mxGeometry>
        </mxCell>
      </root>
    </mxGraphModel>
  </diagram>
</mxfile>
